#!OML:ASF H:\Dans Jumps\Project 1\Capture day 1\Session 1\subject.ASF
:FULLY-SPECIFIED
:DEGREES
371
root 0.230885 17.4717 5.12431 2.68034 5.04172 -2.21918
lowerback 2.71789 0.66413 0.986848
upperback 3.44553 0.870971 2.08592
thorax 1.99448 0.432275 1.57979
lowerneck -11.2368 -1.54421 -1.8078
upperneck 34.5574 -2.3938 1.90091
head 13.5843 -0.994936 0.733281
rclavicle -2.17669e-014 -8.74653e-015
rhumerus -12.6735 -13.7642 -85.6849
rradius 30.4396
rwrist 30.6315
rhand -25.6596 -26.8829
rfingers 7.12502
rthumb 0.874528 -56.8609
lclavicle -2.17669e-014 -8.74653e-015
lhumerus -24.5185 17.9023 80.4968
lradius 8.67036
lwrist -7.74953
lhand -26.3194 -7.72505
lfingers 7.12502
lthumb 0.237299 22.2546
rfemur -19.7713 -1.95778 22.0225
rtibia 28.1617
rfoot -10.1346 -2.06435
rtoes 21.3978
lfemur -19.8945 4.18079 -15.7752
ltibia 27.6955
lfoot -9.04095 1.65564
ltoes -5.56585
372
root 0.237704 17.4822 5.15438 2.74552 5.01756 -2.19388
lowerback 2.58022 0.670955 1.00342
upperback 3.39973 0.878129 2.07943
thorax 2.02462 0.4363 1.56514
lowerneck -11.2616 -1.5524 -1.81014
upperneck 34.4804 -2.4031 1.89814
head 13.5559 -0.999961 0.730548
rclavicle 7.55382e-015 -7.95139e-015
rhumerus -12.882 -13.7284 -85.732
rradius 30.3445
rwrist 30.6908
rhand -25.6679 -26.8578
rfingers 7.12502
rthumb 0.866524 -56.8358
lclavicle 7.55382e-015 -7.95139e-015
lhumerus -24.6827 17.928 80.5174
lradius 8.8501
lwrist -7.83783
lhand -26.1773 -7.61706
lfingers 7.12502
lthumb 0.374469 22.3624
rfemur -19.5853 -1.93321 21.9774
rtibia 27.9077
rfoot -10.1375 -2.06738
rtoes 21.4498
lfemur -19.6778 4.2324 -15.8099
ltibia 27.391
lfoot -9.03708 1.62529
ltoes -5.65595
373
root 0.244912 17.4922 5.18359 2.81243 4.98475 -2.17581
lowerback 2.45052 0.676449 1.02936
upperback 3.35351 0.883728 2.07447
thorax 2.05004 0.439733 1.54674
lowerneck -11.295 -1.55449 -1.80798
upperneck 34.404 -2.40166 1.8869
head 13.5293 -1.00083 0.725177
rclavicle 2.06736e-014 3.97569e-015
rhumerus -13.0958 -13.6804 -85.7786
rradius 30.2466
rwrist 30.7522
rhand -25.6713 -26.8398
rfingers 7.12502
rthumb 0.863166 -56.8178
lclavicle 2.06736e-014 3.97569e-015
lhumerus -24.8406 17.9688 80.5394
lradius 9.0401
lwrist -7.95406
lhand -26.0233 -7.49325
lfingers 7.12502
lthumb 0.52326 22.4858
rfemur -19.4109 -1.91825 21.939
rtibia 27.6613
rfoot -10.1395 -2.04867
rtoes 21.5216
lfemur -19.4742 4.27175 -15.8372
ltibia 27.1017
lfoot -9.02505 1.60162
ltoes -5.70535
374
root 0.252381 17.5018 5.21222 2.87352 4.94629 -2.1715
lowerback 2.32857 0.67881 1.0689
upperback 3.31273 0.885201 2.07361
thorax 2.07699 0.441351 1.52493
lowerneck -11.3325 -1.54928 -1.80162
upperneck 34.3185 -2.38808 1.86876
head 13.4991 -0.996842 0.718017
rclavicle 6.75868e-015 3.97569e-016
rhumerus -13.3024 -13.6389 -85.8267
rradius 30.134
rwrist 30.8312
rhand -25.685 -26.8062
rfingers 7.12502
rthumb 0.849964 -56.7842
lclavicle 6.75868e-015 3.97569e-016
lhumerus -24.9887 18.0274 80.5618
lradius 9.24047
lwrist -8.09488
lhand -25.8574 -7.35208
lfingers 7.12502
lthumb 0.68351 22.6266
rfemur -19.2387 -1.91646 21.917
rtibia 27.4209
rfoot -10.1394 -2.01716
rtoes 21.5745
lfemur -19.2767 4.2999 -15.8498
ltibia 26.8297
lfoot -9.00658 1.584
ltoes -5.70937
375
root 0.259988 17.5106 5.24 2.9308 4.90097 -2.17338
lowerback 2.21594 0.679587 1.11331
upperback 3.27642 0.884588 2.07531
thorax 2.10342 0.441999 1.50297
lowerneck -11.3694 -1.53879 -1.79233
upperneck 34.2234 -2.36465 1.84256
head 13.4642 -0.98933 0.708547
rclavicle 4.17448e-015 9.54166e-015
rhumerus -13.4977 -13.6142 -85.8743
rradius 30.0015
rwrist 30.9308
rhand -25.6848 -26.7796
rfingers 7.12502
rthumb 0.850196 -56.7576
lclavicle 4.17448e-015 9.54166e-015
lhumerus -25.1249 18.1011 80.5864
lradius 9.44444
lwrist -8.24798
lhand -25.6892 -7.23299
lfingers 7.12502
lthumb 0.84597 22.7451
rfemur -19.0723 -1.92013 21.9025
rtibia 27.189
rfoot -10.1381 -1.97788
rtoes 21.6315
lfemur -19.0875 4.31526 -15.8557
ltibia 26.5748
lfoot -8.97997 1.57627
ltoes -5.66436
376
root 0.267724 17.5189 5.26716 2.97899 4.84985 -2.18183
lowerback 2.11848 0.679003 1.16536
upperback 3.2423 0.882433 2.07718
thorax 2.12376 0.442043 1.47672
lowerneck -11.3994 -1.5236 -1.77689
upperneck 34.1248 -2.33384 1.81003
head 13.426 -0.978722 0.696616
rclavicle 2.38542e-015 0
rhumerus -13.6975 -13.6027 -85.9211
rradius 29.8618
rwrist 31.0468
rhand -25.6787 -26.7618
rfingers 7.12502
rthumb 0.85604 -56.7398
lclavicle 2.38542e-015 0
lhumerus -25.2546 18.183 80.6047
lradius 9.64182
lwrist -8.41753
lhand -25.5305 -7.17396
lfingers 7.12502
lthumb 0.999235 22.8034
rfemur -18.9056 -1.93659 21.8987
rtibia 26.9684
rfoot -10.1376 -1.93603
rtoes 21.6103
lfemur -18.8994 4.32071 -15.855
ltibia 26.336
lfoot -8.94845 1.57769
ltoes -5.5889
